<mxfile host="app.diagrams.net" modified="2022-06-25T17:08:42.365Z" agent="5.0 (Windows NT 10.0; Win64; x64) AppleWebKit/537.36 (KHTML, like Gecko) Chrome/102.0.5005.124 Safari/537.36 Edg/102.0.1245.44" etag="ZCsIfmxLnyl3sMB7Rfdm" version="20.0.3" type="github">
  <diagram id="OmcGnNJAm_oZgz3PjmWV" name="Page-1">
    <mxGraphModel dx="864" dy="489" grid="1" gridSize="10" guides="1" tooltips="1" connect="1" arrows="1" fold="1" page="1" pageScale="1" pageWidth="827" pageHeight="1169" math="0" shadow="0">
      <root>
        <mxCell id="0" />
        <mxCell id="1" parent="0" />
        <mxCell id="_S7rLKdW4QslKc1rQfYE-25" value="" style="edgeStyle=orthogonalEdgeStyle;rounded=0;orthogonalLoop=1;jettySize=auto;html=1;" edge="1" parent="1" source="_S7rLKdW4QslKc1rQfYE-1" target="_S7rLKdW4QslKc1rQfYE-23">
          <mxGeometry relative="1" as="geometry" />
        </mxCell>
        <mxCell id="_S7rLKdW4QslKc1rQfYE-1" value="Inicio" style="ellipse;whiteSpace=wrap;html=1;" vertex="1" parent="1">
          <mxGeometry x="50" y="25" width="120" height="80" as="geometry" />
        </mxCell>
        <mxCell id="_S7rLKdW4QslKc1rQfYE-3" value="A Data é poserior&lt;br&gt;a data atual?&lt;br&gt;__/__/__" style="rhombus;whiteSpace=wrap;html=1;fillColor=#fff2cc;strokeColor=#d6b656;" vertex="1" parent="1">
          <mxGeometry x="305" y="470" width="140" height="135" as="geometry" />
        </mxCell>
        <mxCell id="_S7rLKdW4QslKc1rQfYE-7" value="" style="endArrow=classic;html=1;rounded=0;exitX=0.13;exitY=0.843;exitDx=0;exitDy=0;exitPerimeter=0;entryX=1;entryY=0.5;entryDx=0;entryDy=0;" edge="1" parent="1" source="_S7rLKdW4QslKc1rQfYE-30" target="_S7rLKdW4QslKc1rQfYE-9">
          <mxGeometry width="50" height="50" relative="1" as="geometry">
            <mxPoint x="70" y="214.5" as="sourcePoint" />
            <mxPoint x="430" y="415" as="targetPoint" />
          </mxGeometry>
        </mxCell>
        <mxCell id="_S7rLKdW4QslKc1rQfYE-9" value="__/__/__" style="shape=manualInput;whiteSpace=wrap;html=1;fillColor=#e1d5e7;strokeColor=#9673a6;" vertex="1" parent="1">
          <mxGeometry x="315" y="370" width="120" height="70" as="geometry" />
        </mxCell>
        <mxCell id="_S7rLKdW4QslKc1rQfYE-12" value="" style="endArrow=classic;html=1;rounded=0;exitX=0.5;exitY=1;exitDx=0;exitDy=0;entryX=0.5;entryY=0;entryDx=0;entryDy=0;" edge="1" parent="1" source="_S7rLKdW4QslKc1rQfYE-9" target="_S7rLKdW4QslKc1rQfYE-3">
          <mxGeometry width="50" height="50" relative="1" as="geometry">
            <mxPoint x="140" y="480" as="sourcePoint" />
            <mxPoint x="210" y="580" as="targetPoint" />
          </mxGeometry>
        </mxCell>
        <mxCell id="_S7rLKdW4QslKc1rQfYE-46" value="" style="edgeStyle=orthogonalEdgeStyle;rounded=0;orthogonalLoop=1;jettySize=auto;html=1;entryX=0;entryY=0.75;entryDx=0;entryDy=0;" edge="1" parent="1" source="_S7rLKdW4QslKc1rQfYE-17" target="_S7rLKdW4QslKc1rQfYE-47">
          <mxGeometry relative="1" as="geometry" />
        </mxCell>
        <mxCell id="_S7rLKdW4QslKc1rQfYE-17" value="Evento aberto!&lt;br&gt;Como você deseja participar?" style="shape=display;whiteSpace=wrap;html=1;fillColor=#d5e8d4;strokeColor=#82b366;" vertex="1" parent="1">
          <mxGeometry x="430" y="570" width="370" height="55" as="geometry" />
        </mxCell>
        <mxCell id="_S7rLKdW4QslKc1rQfYE-21" value="Data Invalida, &lt;br&gt;Por favor digitar nova data?" style="shape=display;whiteSpace=wrap;html=1;fillColor=#f8cecc;strokeColor=#b85450;" vertex="1" parent="1">
          <mxGeometry x="430" y="450" width="280" height="60" as="geometry" />
        </mxCell>
        <mxCell id="_S7rLKdW4QslKc1rQfYE-29" value="" style="edgeStyle=orthogonalEdgeStyle;rounded=0;orthogonalLoop=1;jettySize=auto;html=1;" edge="1" parent="1" source="_S7rLKdW4QslKc1rQfYE-23" target="_S7rLKdW4QslKc1rQfYE-26">
          <mxGeometry relative="1" as="geometry" />
        </mxCell>
        <mxCell id="_S7rLKdW4QslKc1rQfYE-23" value="Bem Vindo, para começar por favor &lt;br&gt;Digite a sua data de nascimento:" style="shape=display;whiteSpace=wrap;html=1;fillColor=#f5f5f5;strokeColor=#666666;fontColor=#333333;" vertex="1" parent="1">
          <mxGeometry x="250" y="20" width="270" height="90" as="geometry" />
        </mxCell>
        <mxCell id="_S7rLKdW4QslKc1rQfYE-28" value="" style="edgeStyle=orthogonalEdgeStyle;rounded=0;orthogonalLoop=1;jettySize=auto;html=1;" edge="1" parent="1" source="_S7rLKdW4QslKc1rQfYE-26" target="_S7rLKdW4QslKc1rQfYE-27">
          <mxGeometry relative="1" as="geometry" />
        </mxCell>
        <mxCell id="_S7rLKdW4QslKc1rQfYE-26" value="__/__/__" style="shape=manualInput;whiteSpace=wrap;html=1;fillColor=#e1d5e7;strokeColor=#9673a6;" vertex="1" parent="1">
          <mxGeometry x="305" y="140" width="160" height="70" as="geometry" />
        </mxCell>
        <mxCell id="_S7rLKdW4QslKc1rQfYE-27" value="Comparar Idade&lt;br&gt;&amp;gt;= 18" style="rhombus;whiteSpace=wrap;html=1;fillColor=#fff2cc;strokeColor=#d6b656;" vertex="1" parent="1">
          <mxGeometry x="305" y="240" width="160" height="110" as="geometry" />
        </mxCell>
        <mxCell id="_S7rLKdW4QslKc1rQfYE-30" value="Muito Bem, agora digite a data do evento&lt;br&gt;que deseja participar" style="shape=display;whiteSpace=wrap;html=1;fillColor=#d5e8d4;strokeColor=#82b366;" vertex="1" parent="1">
          <mxGeometry x="430" y="320" width="280" height="70" as="geometry" />
        </mxCell>
        <mxCell id="_S7rLKdW4QslKc1rQfYE-31" value="" style="endArrow=classic;html=1;rounded=0;exitX=1;exitY=1;exitDx=0;exitDy=0;entryX=0.089;entryY=0.34;entryDx=0;entryDy=0;entryPerimeter=0;" edge="1" parent="1" source="_S7rLKdW4QslKc1rQfYE-27" target="_S7rLKdW4QslKc1rQfYE-30">
          <mxGeometry width="50" height="50" relative="1" as="geometry">
            <mxPoint x="390" y="260" as="sourcePoint" />
            <mxPoint x="440" y="210" as="targetPoint" />
          </mxGeometry>
        </mxCell>
        <mxCell id="_S7rLKdW4QslKc1rQfYE-32" value="Sim" style="text;html=1;align=center;verticalAlign=middle;resizable=0;points=[];autosize=1;strokeColor=none;fillColor=none;" vertex="1" parent="1">
          <mxGeometry x="430" y="310" width="40" height="30" as="geometry" />
        </mxCell>
        <mxCell id="_S7rLKdW4QslKc1rQfYE-33" value="Desculpe, idade não permitida" style="shape=display;whiteSpace=wrap;html=1;fillColor=#f8cecc;strokeColor=#b85450;" vertex="1" parent="1">
          <mxGeometry x="430" y="210" width="280" height="60" as="geometry" />
        </mxCell>
        <mxCell id="_S7rLKdW4QslKc1rQfYE-34" value="" style="endArrow=classic;html=1;rounded=0;exitX=1;exitY=0;exitDx=0;exitDy=0;entryX=0.08;entryY=0.687;entryDx=0;entryDy=0;entryPerimeter=0;" edge="1" parent="1" source="_S7rLKdW4QslKc1rQfYE-27" target="_S7rLKdW4QslKc1rQfYE-33">
          <mxGeometry width="50" height="50" relative="1" as="geometry">
            <mxPoint x="390" y="260" as="sourcePoint" />
            <mxPoint x="440" y="210" as="targetPoint" />
          </mxGeometry>
        </mxCell>
        <mxCell id="_S7rLKdW4QslKc1rQfYE-35" value="" style="endArrow=classic;html=1;rounded=0;exitX=1;exitY=0;exitDx=0;exitDy=0;entryX=0.124;entryY=0.75;entryDx=0;entryDy=0;entryPerimeter=0;" edge="1" parent="1" source="_S7rLKdW4QslKc1rQfYE-3" target="_S7rLKdW4QslKc1rQfYE-21">
          <mxGeometry width="50" height="50" relative="1" as="geometry">
            <mxPoint x="390" y="530" as="sourcePoint" />
            <mxPoint x="440" y="480" as="targetPoint" />
          </mxGeometry>
        </mxCell>
        <mxCell id="_S7rLKdW4QslKc1rQfYE-36" value="Não" style="text;html=1;align=center;verticalAlign=middle;resizable=0;points=[];autosize=1;strokeColor=none;fillColor=none;" vertex="1" parent="1">
          <mxGeometry x="430" y="250" width="50" height="30" as="geometry" />
        </mxCell>
        <mxCell id="_S7rLKdW4QslKc1rQfYE-37" value="Sim" style="text;html=1;align=center;verticalAlign=middle;resizable=0;points=[];autosize=1;strokeColor=none;fillColor=none;" vertex="1" parent="1">
          <mxGeometry x="430" y="555" width="40" height="30" as="geometry" />
        </mxCell>
        <mxCell id="_S7rLKdW4QslKc1rQfYE-38" value="" style="endArrow=classic;html=1;rounded=0;exitX=1;exitY=1;exitDx=0;exitDy=0;entryX=0.833;entryY=0.989;entryDx=0;entryDy=0;entryPerimeter=0;" edge="1" parent="1" source="_S7rLKdW4QslKc1rQfYE-3" target="_S7rLKdW4QslKc1rQfYE-37">
          <mxGeometry width="50" height="50" relative="1" as="geometry">
            <mxPoint x="380" y="470" as="sourcePoint" />
            <mxPoint x="430" y="420" as="targetPoint" />
          </mxGeometry>
        </mxCell>
        <mxCell id="_S7rLKdW4QslKc1rQfYE-39" value="Não" style="text;html=1;align=center;verticalAlign=middle;resizable=0;points=[];autosize=1;strokeColor=none;fillColor=none;" vertex="1" parent="1">
          <mxGeometry x="420" y="490" width="50" height="30" as="geometry" />
        </mxCell>
        <mxCell id="_S7rLKdW4QslKc1rQfYE-40" value="" style="endArrow=classic;html=1;rounded=0;exitX=0.124;exitY=0.233;exitDx=0;exitDy=0;exitPerimeter=0;entryX=1;entryY=0.75;entryDx=0;entryDy=0;" edge="1" parent="1" source="_S7rLKdW4QslKc1rQfYE-21" target="_S7rLKdW4QslKc1rQfYE-9">
          <mxGeometry width="50" height="50" relative="1" as="geometry">
            <mxPoint x="380" y="470" as="sourcePoint" />
            <mxPoint x="440" y="440" as="targetPoint" />
            <Array as="points">
              <mxPoint x="460" y="420" />
            </Array>
          </mxGeometry>
        </mxCell>
        <mxCell id="_S7rLKdW4QslKc1rQfYE-43" value="Listar&amp;nbsp;&lt;br&gt;Participantes" style="whiteSpace=wrap;html=1;aspect=fixed;fillColor=#dae8fc;strokeColor=#6c8ebf;" vertex="1" parent="1">
          <mxGeometry x="650" y="750" width="80" height="80" as="geometry" />
        </mxCell>
        <mxCell id="_S7rLKdW4QslKc1rQfYE-44" value="Numero de Participantes&lt;br&gt;&amp;gt;= 100" style="rhombus;whiteSpace=wrap;html=1;fillColor=#fff2cc;strokeColor=#d6b656;" vertex="1" parent="1">
          <mxGeometry x="480" y="730" width="126" height="120" as="geometry" />
        </mxCell>
        <mxCell id="_S7rLKdW4QslKc1rQfYE-45" value="" style="endArrow=classic;html=1;rounded=0;exitX=0;exitY=0.5;exitDx=0;exitDy=0;entryX=1;entryY=0.5;entryDx=0;entryDy=0;" edge="1" parent="1" source="_S7rLKdW4QslKc1rQfYE-43" target="_S7rLKdW4QslKc1rQfYE-44">
          <mxGeometry width="50" height="50" relative="1" as="geometry">
            <mxPoint x="380" y="740" as="sourcePoint" />
            <mxPoint x="440" y="690" as="targetPoint" />
          </mxGeometry>
        </mxCell>
        <mxCell id="_S7rLKdW4QslKc1rQfYE-47" value="Palestrante" style="shape=manualInput;whiteSpace=wrap;html=1;fillColor=#e1d5e7;strokeColor=#9673a6;" vertex="1" parent="1">
          <mxGeometry x="640" y="625" width="120" height="55" as="geometry" />
        </mxCell>
        <mxCell id="_S7rLKdW4QslKc1rQfYE-48" value="Convidado" style="shape=manualInput;whiteSpace=wrap;html=1;fillColor=#e1d5e7;strokeColor=#9673a6;" vertex="1" parent="1">
          <mxGeometry x="640" y="680" width="120" height="55" as="geometry" />
        </mxCell>
        <mxCell id="_S7rLKdW4QslKc1rQfYE-49" value="" style="endArrow=classic;html=1;rounded=0;exitX=0.481;exitY=1.006;exitDx=0;exitDy=0;exitPerimeter=0;entryX=0;entryY=0.75;entryDx=0;entryDy=0;" edge="1" parent="1" source="_S7rLKdW4QslKc1rQfYE-17" target="_S7rLKdW4QslKc1rQfYE-48">
          <mxGeometry width="50" height="50" relative="1" as="geometry">
            <mxPoint x="440" y="660" as="sourcePoint" />
            <mxPoint x="490" y="610" as="targetPoint" />
            <Array as="points">
              <mxPoint x="608" y="721" />
            </Array>
          </mxGeometry>
        </mxCell>
        <mxCell id="_S7rLKdW4QslKc1rQfYE-50" value="" style="endArrow=classic;html=1;rounded=0;exitX=1;exitY=0;exitDx=0;exitDy=0;entryX=1.008;entryY=0.6;entryDx=0;entryDy=0;entryPerimeter=0;" edge="1" parent="1" source="_S7rLKdW4QslKc1rQfYE-47" target="_S7rLKdW4QslKc1rQfYE-43">
          <mxGeometry width="50" height="50" relative="1" as="geometry">
            <mxPoint x="440" y="660" as="sourcePoint" />
            <mxPoint x="750" y="800" as="targetPoint" />
            <Array as="points">
              <mxPoint x="760" y="798" />
            </Array>
          </mxGeometry>
        </mxCell>
        <mxCell id="_S7rLKdW4QslKc1rQfYE-51" value="" style="endArrow=classic;html=1;rounded=0;exitX=0;exitY=1;exitDx=0;exitDy=0;entryX=1;entryY=0.5;entryDx=0;entryDy=0;entryPerimeter=0;" edge="1" parent="1" source="_S7rLKdW4QslKc1rQfYE-44" target="_S7rLKdW4QslKc1rQfYE-52">
          <mxGeometry width="50" height="50" relative="1" as="geometry">
            <mxPoint x="440" y="730" as="sourcePoint" />
            <mxPoint x="480" y="720" as="targetPoint" />
          </mxGeometry>
        </mxCell>
        <mxCell id="_S7rLKdW4QslKc1rQfYE-52" value="Participação Confirmada!&lt;br&gt;" style="shape=display;whiteSpace=wrap;html=1;fillColor=#d5e8d4;strokeColor=#82b366;" vertex="1" parent="1">
          <mxGeometry x="130" y="830" width="350" height="50" as="geometry" />
        </mxCell>
        <mxCell id="_S7rLKdW4QslKc1rQfYE-53" value="Desculpe, mas não há mais cadeiras&amp;nbsp;&lt;br&gt;disponíveis para este evento,&amp;nbsp;tente outra data:" style="shape=display;whiteSpace=wrap;html=1;fillColor=#f8cecc;strokeColor=#b85450;" vertex="1" parent="1">
          <mxGeometry x="130" y="700" width="350" height="50" as="geometry" />
        </mxCell>
        <mxCell id="_S7rLKdW4QslKc1rQfYE-54" value="" style="endArrow=classic;html=1;rounded=0;exitX=0;exitY=0;exitDx=0;exitDy=0;entryX=1;entryY=0.5;entryDx=0;entryDy=0;entryPerimeter=0;" edge="1" parent="1" source="_S7rLKdW4QslKc1rQfYE-44" target="_S7rLKdW4QslKc1rQfYE-53">
          <mxGeometry width="50" height="50" relative="1" as="geometry">
            <mxPoint x="440" y="790" as="sourcePoint" />
            <mxPoint x="490" y="740" as="targetPoint" />
          </mxGeometry>
        </mxCell>
        <mxCell id="_S7rLKdW4QslKc1rQfYE-56" value="Sim" style="text;html=1;align=center;verticalAlign=middle;resizable=0;points=[];autosize=1;strokeColor=none;fillColor=none;" vertex="1" parent="1">
          <mxGeometry x="485" y="720" width="40" height="30" as="geometry" />
        </mxCell>
        <mxCell id="_S7rLKdW4QslKc1rQfYE-57" value="Não" style="text;html=1;align=center;verticalAlign=middle;resizable=0;points=[];autosize=1;strokeColor=none;fillColor=none;" vertex="1" parent="1">
          <mxGeometry x="480" y="830" width="50" height="30" as="geometry" />
        </mxCell>
        <mxCell id="_S7rLKdW4QslKc1rQfYE-59" value="Fim" style="ellipse;whiteSpace=wrap;html=1;" vertex="1" parent="1">
          <mxGeometry x="50" y="545" width="120" height="80" as="geometry" />
        </mxCell>
        <mxCell id="_S7rLKdW4QslKc1rQfYE-60" value="" style="endArrow=classic;html=1;rounded=0;exitX=0.114;exitY=0.2;exitDx=0;exitDy=0;exitPerimeter=0;entryX=0.5;entryY=1;entryDx=0;entryDy=0;" edge="1" parent="1" source="_S7rLKdW4QslKc1rQfYE-52" target="_S7rLKdW4QslKc1rQfYE-59">
          <mxGeometry width="50" height="50" relative="1" as="geometry">
            <mxPoint x="260" y="860" as="sourcePoint" />
            <mxPoint x="310" y="810" as="targetPoint" />
            <Array as="points">
              <mxPoint x="110" y="720" />
            </Array>
          </mxGeometry>
        </mxCell>
        <mxCell id="_S7rLKdW4QslKc1rQfYE-63" value="" style="endArrow=classic;html=1;rounded=0;exitX=0;exitY=0;exitDx=206.25;exitDy=0;exitPerimeter=0;entryX=0;entryY=0.75;entryDx=0;entryDy=0;" edge="1" parent="1" source="_S7rLKdW4QslKc1rQfYE-53" target="_S7rLKdW4QslKc1rQfYE-9">
          <mxGeometry width="50" height="50" relative="1" as="geometry">
            <mxPoint x="260" y="710" as="sourcePoint" />
            <mxPoint x="310" y="660" as="targetPoint" />
            <Array as="points">
              <mxPoint x="270" y="540" />
            </Array>
          </mxGeometry>
        </mxCell>
        <mxCell id="_S7rLKdW4QslKc1rQfYE-64" value="Adicionar a&amp;nbsp;&lt;br&gt;Lista" style="shape=parallelogram;perimeter=parallelogramPerimeter;whiteSpace=wrap;html=1;fixedSize=1;fillColor=#dae8fc;strokeColor=#6c8ebf;" vertex="1" parent="1">
          <mxGeometry x="630" y="840" width="100" height="40" as="geometry" />
        </mxCell>
        <mxCell id="_S7rLKdW4QslKc1rQfYE-65" value="" style="endArrow=none;dashed=1;html=1;rounded=0;exitX=-0.013;exitY=1.067;exitDx=0;exitDy=0;exitPerimeter=0;entryX=0;entryY=0.5;entryDx=0;entryDy=0;" edge="1" parent="1" source="_S7rLKdW4QslKc1rQfYE-57" target="_S7rLKdW4QslKc1rQfYE-64">
          <mxGeometry width="50" height="50" relative="1" as="geometry">
            <mxPoint x="380" y="830" as="sourcePoint" />
            <mxPoint x="430" y="780" as="targetPoint" />
          </mxGeometry>
        </mxCell>
        <mxCell id="_S7rLKdW4QslKc1rQfYE-67" value="" style="endArrow=none;dashed=1;html=1;rounded=0;exitX=1;exitY=0.5;exitDx=0;exitDy=0;entryX=1.025;entryY=0.658;entryDx=0;entryDy=0;entryPerimeter=0;" edge="1" parent="1" source="_S7rLKdW4QslKc1rQfYE-64" target="_S7rLKdW4QslKc1rQfYE-43">
          <mxGeometry width="50" height="50" relative="1" as="geometry">
            <mxPoint x="380" y="830" as="sourcePoint" />
            <mxPoint x="430" y="780" as="targetPoint" />
            <Array as="points">
              <mxPoint x="770" y="840" />
            </Array>
          </mxGeometry>
        </mxCell>
      </root>
    </mxGraphModel>
  </diagram>
</mxfile>
